{"title":"Jolly Days (Kannada 2010) VCDrip","uid":6917311,"size":515578507,"categoryP":"video","categoryS":"movies","magnet":"?xt=urn:btih:34428d2368279355d69fd28a1a3e72260fcb76fd&amp;dn=Jolly+Days+%28Kannada+2010%29+VCDrip&amp;tr=udp%3A%2F%2Ftracker.openbittorrent.com%3A80&amp;tr=udp%3A%2F%2Fopen.demonii.com%3A1337&amp;tr=udp%3A%2F%2Ftracker.coppersurfer.tk%3A6969&amp;tr=udp%3A%2F%2Fexodus.desync.com%3A6969","seeders":0,"leechers":1,"uploader":"PaVanTPB","files":-1,"time":1325032678,"description":"General\n\nFormat : AVI\nFormat/Info : Audio Video Interleave\nFile size : 492 MiB\nDuration : 2h 13mn\nOverall bit rate : 514 Kbps\nWriting application : Lavf52.39.1\n\nVideo\n\nID : 0\nFormat : xvid\nCodec ID : xvid\nDuration : 2h 13mn\nBit rate : 469 Kbps\nWidth : 352 pixels\nHeight : 248 pixels\nDisplay aspect ratio : 1.419\nFrame rate : 25.000 fps\nBits/(Pixel*Frame) : 0.215\nStream size : 449 MiB (91%)\n\nAudio\nID : 1\nFormat : MPEG Audio\nFormat version : Version 1\nFormat profile : Layer 3\nMode : Joint stereo\nMode extension : MS Stereo\nCodec ID : 55\nCodec ID/Hint : MP3\nDuration : 2h 13mn\nBit rate mode : Constant\nBit rate : 32.0 Kbps\nChannel(s) : 2 channels\nSampling rate : 48.0 KHz\nCompression mode : Lossy\nStream size : 30.6 MiB (6%)\nAlignment : Aligned on interleaves\nInterleave, duration : 24 ms (0.60 video frame)\nWriting library : LAME3.96.1\n\nScreens\n &lt;a href=&quot;\nhttp://img265.imageshack.us/img265/113/vlcsnap2011122611h33m06.png&quot; rel=&quot;nofollow&quot; target=&quot;_NEW&quot;&gt;\nhttp://img265.imageshack.us/img265/113/vlcsnap2011122611h33m06.png&lt;/a&gt;\n &lt;a href=&quot;\nhttp://img24.imageshack.us/img24/7250/vlcsnap2011122611h33m20.png&quot; rel=&quot;nofollow&quot; target=&quot;_NEW&quot;&gt;\nhttp://img24.imageshack.us/img24/7250/vlcsnap2011122611h33m20.png&lt;/a&gt;\n &lt;a href=&quot;\nhttp://img137.imageshack.us/img137/3691/vlcsnap2011122611h33m31.png&quot; rel=&quot;nofollow&quot; target=&quot;_NEW&quot;&gt;\nhttp://img137.imageshack.us/img137/3691/vlcsnap2011122611h33m31.png&lt;/a&gt;","torrent":{"xt":"urn:btih:34428d2368279355d69fd28a1a3e72260fcb76fd","amp;dn":"Jolly+Days+%28Kannada+2010%29+VCDrip","amp;tr":["udp%3A%2F%2Ftracker.openbittorrent.com%3A80","udp%3A%2F%2Fopen.demonii.com%3A1337","udp%3A%2F%2Ftracker.coppersurfer.tk%3A6969","udp%3A%2F%2Fexodus.desync.com%3A6969"],"infoHash":"34428d2368279355d69fd28a1a3e72260fcb76fd","infoHashBuffer":{"type":"Buffer","data":[52,66,141,35,104,39,147,85,214,159,210,138,26,62,114,38,15,203,118,253]},"announce":[],"urlList":[]}}